<!DOCTYPE svg PUBLIC "-//W3C//DTD SVG 20010904//EN" "http://www.w3.org/TR/2001/REC-SVG-20010904/DTD/svg10.dtd">
<svg version="1.0" xmlns="http://www.w3.org/2000/svg" width="100px" height="80px" viewBox="0 0 2000 2000" preserveAspectRatio="xMidYMid meet">
<g id="layer101" fill="#1761a0" stroke="none">
<path d="M1508 1468 l-3 -33 -130 -17 c-275 -35 -663 -33 -930 5 -77 12 -80 13 -83 40 l-3 27 -130 0 c-71 0 -129 -3 -129 -6 0 -3 18 -27 41 -54 l41 -49 -41 -49 c-23 -26 -41 -51 -41 -55 0 -4 38 -7 85 -7 l85 0 0 -34 0 -34 90 -16 c389 -72 812 -70 1178 5 51 10 52 11 52 45 l0 34 90 0 c50 0 90 4 90 9 0 6 -18 31 -40 56 -22 25 -40 48 -40 50 0 2 18 25 40 50 22 25 40 50 40 56 0 5 -55 9 -129 9 l-130 0 -3 -32z m-1210 -6 c-27 -16 -28 -20 -28 -94 l0 -78 -65 0 c-36 0 -65 3 -65 6 0 4 16 24 36 46 l36 40 -24 27 c-13 14 -32 36 -42 49 l-19 22 99 0 c97 -1 99 -1 72 -18z m1408 -24 c-20 -23 -36 -47 -36 -53 0 -6 16 -30 36 -53 l36 -42 -76 0 -76 0 0 79 c0 71 -2 82 -22 95 -21 15 -16 16 76 16 l98 0 -36 -42z m-1356 17 c0 -9 -9 -15 -22 -15 -21 0 -21 0 -2 15 24 18 24 18 24 0z m1210 -10 c0 -3 -9 -5 -20 -5 -11 0 -20 7 -20 15 0 13 4 14 20 5 11 -6 20 -13 20 -15z m-1109 -39 c213 -28 467 -38 667 -26 169 10 383 32 440 47 l23 5 -3 -108 -3 -109 -130 -22 c-178 -30 -336 -43 -510 -43 -174 0 -332 13 -510 43 l-130 22 -3 109 -3 108 23 -5 c13 -4 75 -13 139 -21z"/>
<path d="M1363 1372 c-60 -14 -71 -20 -63 -32 12 -19 13 -50 1 -50 -5 0 -12 14 -16 30 -5 25 -11 30 -36 30 -27 0 -29 -2 -29 -40 0 -28 4 -40 14 -40 11 0 13 7 6 30 -5 18 -5 32 1 35 15 10 29 -5 29 -31 0 -26 8 -28 59 -18 28 6 32 10 29 37 -2 17 2 32 10 34 10 4 18 -22 13 -49 0 -5 10 -8 24 -8 14 0 25 5 25 11 0 6 -7 9 -15 5 -8 -3 -15 -1 -15 4 0 6 8 10 18 10 16 1 16 1 0 14 -24 18 -23 23 5 21 16 -1 23 -9 25 -28 2 -18 9 -27 21 -27 29 0 53 24 49 51 -3 20 -9 24 -43 26 -22 1 -72 -6 -112 -15z m135 -20 c4 -26 -22 -31 -32 -6 -10 26 -7 36 12 32 9 -2 18 -13 20 -26z"/>
<path d="M343 1352 c-1 -16 -3 -35 -5 -42 -2 -7 3 -15 10 -17 7 -3 12 4 12 16 0 14 6 21 20 21 18 0 19 -3 10 -20 -9 -17 -8 -20 10 -20 12 0 19 4 15 10 -8 12 5 60 16 60 5 0 9 -4 9 -9 0 -5 5 -22 11 -38 l10 -28 30 35 30 35 -3 -37 c-4 -36 -2 -38 24 -38 21 0 28 5 28 20 0 11 -6 23 -14 26 -8 3 -12 12 -9 20 4 10 -4 14 -31 14 -20 0 -36 -4 -36 -10 0 -5 -4 -10 -10 -10 -5 0 -10 7 -10 15 0 8 -9 15 -19 15 -11 0 -26 3 -34 6 -12 4 -14 0 -10 -15 4 -16 1 -21 -16 -21 -24 0 -27 10 -9 28 9 9 8 12 -7 12 -15 0 -21 -8 -22 -28z"/>
<path d="M590 1326 c0 -13 -3 -31 -6 -40 -5 -13 1 -16 25 -16 24 0 31 4 31 20 0 11 -7 23 -16 27 -8 3 -13 12 -10 19 3 8 -1 14 -9 14 -9 0 -15 -10 -15 -24z"/>
<path d="M655 1300 c-1 -27 3 -40 13 -40 7 0 11 4 7 10 -8 13 5 60 17 60 6 0 8 -16 6 -35 -4 -38 10 -47 32 -20 18 21 32 19 25 -5 -4 -13 -2 -20 7 -20 8 0 13 14 13 40 1 22 -1 40 -3 40 -2 0 -18 -10 -34 -22 -30 -21 -30 -21 -19 -1 12 23 -1 33 -42 33 -19 0 -22 -6 -22 -40z"/>
<path d="M1088 1333 c-16 -2 -28 -11 -28 -19 0 -8 -7 -14 -15 -14 -8 0 -15 7 -15 16 0 13 -21 17 -22 4 0 -12 36 -80 43 -80 5 0 13 17 19 38 9 29 17 37 36 38 23 2 24 1 10 -15 -23 -25 -20 -41 9 -41 14 0 25 5 25 11 0 6 -7 9 -15 5 -12 -4 -13 -2 -3 13 11 19 5 52 -9 50 -4 -1 -20 -4 -35 -6z"/>
<path d="M1150 1325 c0 -8 5 -15 10 -15 6 0 10 5 10 10 0 6 5 10 12 10 6 0 4 -8 -7 -20 -9 -10 -15 -26 -12 -35 8 -20 37 -20 37 1 0 9 -5 12 -12 8 -10 -6 -10 -4 0 7 21 23 15 49 -13 49 -16 0 -25 -6 -25 -15z"/>
<path d="M795 1290 c-1 -35 2 -40 21 -40 17 0 23 7 27 33 5 32 -5 47 -33 47 -11 0 -15 -11 -15 -40z"/>
<path d="M860 1310 c0 -5 8 -7 18 -3 15 6 15 4 -2 -15 -10 -12 -16 -28 -13 -37 8 -20 37 -20 37 1 0 9 -5 12 -12 8 -7 -4 -5 2 5 14 11 11 16 26 12 31 -8 14 -45 14 -45 1z"/>
<path d="M920 1310 c0 -5 8 -7 18 -3 15 6 15 4 -2 -15 -10 -12 -16 -28 -13 -37 8 -20 37 -20 37 1 0 9 -5 12 -12 8 -7 -4 -5 2 5 14 11 11 16 26 12 31 -8 14 -45 14 -45 1z"/>
<path d="M263 971 c-13 -11 -23 -22 -23 -25 0 -12 28 -6 40 9 12 14 15 14 30 0 9 -8 25 -15 35 -15 10 0 26 7 35 15 15 14 18 14 30 0 7 -8 22 -15 33 -15 11 0 28 7 37 15 15 14 18 14 30 0 17 -21 54 -19 75 5 25 27 12 37 -21 16 -23 -16 -27 -16 -43 -2 -22 20 -35 20 -55 1 -13 -13 -18 -13 -44 2 -29 17 -31 17 -51 -1 -20 -18 -22 -18 -39 -3 -24 22 -41 21 -69 -2z"/>
<path d="M254 915 c-27 -23 -27 -25 -8 -25 12 0 27 7 34 15 12 14 15 14 30 0 9 -8 25 -15 35 -15 10 0 26 7 35 15 15 14 18 14 30 0 15 -18 51 -20 68 -3 10 10 17 10 32 0 29 -18 65 -15 85 8 24 27 12 37 -20 16 -23 -15 -27 -15 -50 0 -22 14 -26 14 -54 -2 -29 -17 -31 -17 -50 0 -19 17 -21 17 -49 1 -27 -17 -31 -17 -53 -1 -30 21 -31 21 -65 -9z"/>
<path d="M340 829 c-19 -11 -46 -19 -60 -20 l-25 0 24 -10 c14 -5 39 -6 55 -2 17 4 65 6 106 6 66 -2 71 -1 40 8 -19 6 -50 17 -68 25 -18 8 -34 13 -35 13 -1 -1 -18 -10 -37 -20z"/>
<path d="M1750 801 c0 -29 -5 -41 -17 -44 -10 -3 2 -5 27 -5 25 0 37 2 28 5 -13 3 -18 15 -18 44 0 21 -4 39 -10 39 -5 0 -10 -18 -10 -39z"/>
<path d="M1810 788 l1 -53 22 25 22 26 22 -26 22 -25 -1 55 c-1 37 -3 44 -5 21 -4 -33 -5 -33 -20 -12 -12 17 -18 20 -29 10 -11 -9 -14 -7 -14 10 0 11 -4 21 -10 21 -5 0 -10 -24 -10 -52z"/>
<path d="M706 803 c-3 -4 -26 -6 -49 -4 -34 2 -40 0 -29 -10 6 -7 12 -22 12 -33 -1 -16 -4 -13 -15 12 -8 17 -19 32 -25 32 -6 0 -17 -15 -25 -32 -11 -25 -14 -28 -15 -13 0 12 5 26 12 33 9 9 4 12 -22 12 -26 0 -31 -3 -22 -12 16 -16 15 -75 0 -92 -11 -11 -16 -11 -34 1 -19 12 -26 11 -57 -7 -20 -12 -58 -25 -84 -29 -29 -4 -47 -12 -46 -19 2 -7 -1 -12 -6 -12 -13 0 -8 -20 14 -57 26 -44 135 -89 135 -56 0 11 3 13 13 5 23 -20 108 75 99 110 -1 4 15 10 36 14 l37 8 -50 12 c-27 6 -42 12 -33 13 9 0 22 16 29 36 7 19 16 35 19 35 3 0 12 -16 19 -35 9 -27 18 -35 37 -35 13 0 24 5 24 10 0 6 -4 10 -10 10 -5 0 -10 18 -10 39 0 22 5 43 10 46 6 3 10 -1 10 -9 0 -9 7 -16 15 -16 8 0 15 5 15 10 0 6 9 10 20 10 28 0 25 -18 -5 -26 -33 -8 -48 -29 -40 -54 5 -16 15 -20 46 -20 32 0 39 3 39 20 0 11 -4 20 -10 20 -5 0 -10 -4 -10 -10 0 -5 -9 -10 -20 -10 -29 0 -25 19 7 31 44 16 53 38 27 63 -16 17 -46 21 -58 9z"/>
<path d="M275 741 c-6 -5 -26 -14 -45 -19 -28 -8 -15 -9 69 -10 64 0 99 3 90 9 -8 5 -24 9 -36 9 -12 0 -25 5 -28 10 -8 13 -38 13 -50 1z"/>
</g>
<g id="layer102" fill="#f0a418" stroke="none">
<path d="M1292 1048 c-14 -14 -16 -106 -2 -142 6 -17 6 -26 0 -26 -6 0 -10 -7 -10 -15 0 -8 5 -15 10 -15 6 0 10 -4 10 -9 0 -12 -38 -2 -47 13 -14 21 -21 111 -10 124 13 16 -6 38 -23 27 -9 -5 -11 -29 -8 -77 5 -67 5 -69 -16 -64 -11 3 -24 6 -28 6 -5 0 -8 15 -8 34 0 38 -32 72 -89 96 -43 17 -81 1 -81 -35 0 -18 -5 -25 -20 -25 -15 0 -20 7 -20 28 0 15 5 33 12 40 9 9 9 15 -1 25 -17 16 -41 -16 -41 -55 0 -21 -5 -28 -20 -28 -25 0 -38 29 -19 41 18 11 -3 34 -24 26 -17 -6 -31 -80 -17 -85 6 -2 10 -14 10 -27 0 -39 12 -85 22 -85 6 0 8 23 6 53 -3 53 -3 54 22 47 17 -4 26 -14 28 -31 7 -62 14 -89 23 -89 7 0 10 21 7 55 -3 48 -1 55 17 57 15 2 28 -10 51 -52 20 -36 38 -56 52 -58 12 -2 22 0 22 5 0 4 13 14 30 21 25 12 40 10 111 -9 67 -18 83 -19 89 -8 7 11 17 10 57 -4 98 -35 100 -9 3 32 -40 17 -66 35 -68 45 -3 16 1 17 30 10 47 -10 63 -10 66 1 2 7 -78 41 -105 45 -1 0 -5 16 -9 36 -10 53 6 59 53 19 43 -36 63 -44 63 -22 -1 11 -76 72 -103 83 -7 2 -18 -1 -25 -8z m-219 -79 c38 -20 67 -52 67 -75 0 -27 -17 -39 -55 -39 -25 0 -32 6 -49 47 -27 67 -13 93 37 67z"/>
<path d="M1452 1008 c-15 -15 -15 -44 0 -125 7 -37 16 -62 22 -60 12 4 12 17 1 99 -9 72 6 83 65 44 71 -47 86 -25 16 24 -47 32 -84 38 -104 18z"/>
<path d="M436 653 c-22 -11 -44 -14 -83 -9 -36 4 -52 3 -48 -4 3 -5 2 -10 -4 -10 -13 0 -9 -20 14 -57 26 -44 135 -89 135 -56 0 11 3 13 13 5 16 -13 75 38 94 80 12 27 11 29 -21 42 -58 24 -70 25 -100 9z"/>
</g>


</svg>